<?xml version="1.0" encoding="UTF-8" standalone="no"?><!DOCTYPE svg PUBLIC "-//W3C//DTD SVG 1.1//EN" "http://www.w3.org/Graphics/SVG/1.1/DTD/svg11.dtd"><svg width="100%" height="100%" viewBox="0 0 477 19" version="1.1" xmlns="http://www.w3.org/2000/svg" xmlns:xlink="http://www.w3.org/1999/xlink" xml:space="preserve" xmlns:serif="http://www.serif.com/" style="fill-rule:evenodd;clip-rule:evenodd;stroke-linejoin:round;stroke-miterlimit:1.41421;"><path d="M446.735,18.346c13.627,-0.472 29.265,-3.393 29.265,-7.572c0,-4.179 -15.779,-6.819 -29.265,-7.572c-39.561,-2.207 -91.578,-3.274 -131.653,-3.198c-54.689,0.103 -140.778,1.51 -190.505,2.584c-34.01,0.735 -83.508,2.804 -104.271,4.168c-7.64,0.503 -20.306,1.63 -20.306,4.018c0,2.388 10.066,3.834 17.917,4.018c37.579,0.88 153.35,-0.169 210.141,0.03c53.469,0.187 108.542,0.62 128.358,1.304c29.557,1.022 64.555,3.112 90.319,2.22Z" style="fill:#1c241d;"/></svg>