<?xml version="1.0" encoding="UTF-8" standalone="no"?><!DOCTYPE svg PUBLIC "-//W3C//DTD SVG 1.1//EN" "http://www.w3.org/Graphics/SVG/1.1/DTD/svg11.dtd"><svg width="100%" height="100%" viewBox="0 0 411 485" version="1.1" xmlns="http://www.w3.org/2000/svg" xmlns:xlink="http://www.w3.org/1999/xlink" xml:space="preserve" xmlns:serif="http://www.serif.com/" style="fill-rule:evenodd;clip-rule:evenodd;stroke-linejoin:round;stroke-miterlimit:1.41421;"><path id="S" d="M214.716,0.145c16.837,-0.766 35.173,1.222 46.757,12.556c9.183,8.986 9.808,25.499 -0.488,35.878c-9.292,9.367 -23.112,12.921 -33.753,20.98c-6.87,5.203 -10.82,13.312 -10.373,22.502c0.44,9.017 3.614,17.888 9.652,24.704c15.293,17.265 40.766,24.114 61.43,34.105c18.323,8.777 37.604,15.195 54.991,25.447c19.431,11.459 39.426,25.476 49.931,45.224c12.472,23.448 19.415,52.024 17.864,78.408c-2.68,45.585 -23.2,86.348 -51.973,114.884c-40.047,39.717 -99.148,65.031 -154.614,68.337c-44.095,2.628 -89.696,1.227 -130.579,-14.347c-25.227,-9.609 -48.715,-26.637 -60.744,-51.322c-11.968,-24.558 -15.95,-55.051 -10.266,-80.445c3.65,-16.306 15.465,-31.259 30.418,-39.716c17.972,-10.165 40.488,-10.747 58.683,-3.641c15.872,6.199 29.896,15.955 46.851,20.964c27.491,8.123 57.29,11.696 83.962,1.193c14.488,-5.705 27.488,-16.129 35.467,-29.79c8.28,-14.177 12.444,-31.984 9.13,-46.871c-5.612,-25.222 -23.852,-35.605 -44.217,-45.992c-23.9,-12.191 -49.495,-17.71 -74.336,-28.701c-20.871,-9.233 -39.742,-25.389 -45.692,-48.839c-2.556,-10.074 -2.335,-20.8 0.309,-30.831c5.043,-19.136 17.203,-35.862 31.421,-49.988c20.885,-20.752 50.309,-32.935 79.01,-34.638c0.386,-0.021 0.773,-0.042 1.159,-0.061Zm20.363,16.039c-11.308,-2.71 -30.579,-0.01 -43.412,6.504c-15.381,7.808 -25.12,13.696 -39.471,30.722c-13.053,15.486 -22.086,34.818 -15.784,61.266c6.421,26.948 42.514,42.866 67.749,53.403c29.5,12.318 56.556,27.696 68.549,51.959c13.393,27.096 -1.701,70.673 -20.361,86.921c-15.016,13.074 -34.151,23.839 -53.702,25.745c-31.713,3.092 -54.026,-0.118 -81.554,-11.568c-15.708,-6.534 -31.243,-17.273 -55.393,-15.52c-16.819,1.221 -43.491,24.358 -32.584,70.299c5.798,24.426 27.563,43.93 51.199,54.565c22.165,9.974 52.215,18.589 77.879,20.779c40.461,3.454 72.559,1.451 101.638,-8.103c77.604,-25.496 109.691,-65.013 123.878,-95.222c11.523,-24.535 12.959,-54.978 12.877,-68.599c-0.163,-27.018 -12.05,-59.787 -31.643,-78.364c-18.513,-17.553 -48.584,-29.756 -78.546,-42.78c-17.377,-7.553 -37.033,-13.498 -50.839,-21.463c-12.41,-7.16 -22.919,-18.345 -26.747,-31.911c-2.914,-10.326 -3.176,-21.736 1.56,-30.888c6.116,-11.82 19.289,-19.118 27.784,-25.746c10.156,-7.923 14.595,-8.326 13.646,-18.991c-0.341,-3.828 -3.865,-9.926 -16.723,-13.008Z" style="fill:#1c241d;fill-rule:nonzero;"/></svg>